<svg xmlns="http://www.w3.org/2000/svg" version="1.1" xmlns:xlink="http://www.w3.org/1999/xlink" xmlns:svgjs="http://svgjs.dev/svgjs" width="1000" height="815" viewBox="0 0 1000 815"><g transform="matrix(1,0,0,1,-0.43882363290646254,0.3299595141700138)"><svg viewBox="0 0 303 247" data-background-color="#ffffff" preserveAspectRatio="xMidYMid meet" height="815" width="1000" xmlns="http://www.w3.org/2000/svg" xmlns:xlink="http://www.w3.org/1999/xlink"><g id="tight-bounds" transform="matrix(1,0,0,1,0.13296375973214936,-0.09999999999999432)"><svg viewBox="0 0 302.734054839283 247.2" height="247.2" width="302.734054839283"><g><svg viewBox="0 0 395.52 322.9651320592458" height="247.2" width="302.734054839283"><g transform="matrix(1,0,0,1,0,240.01294924696484)"><svg viewBox="0 0 395.52 82.95218281228094" height="82.95218281228094" width="395.52"><g><svg viewBox="0 0 395.52 82.95218281228094" height="82.95218281228094" width="395.52"><g><svg viewBox="0 0 395.52 82.95218281228094" height="82.95218281228094" width="395.52"><g transform="matrix(1,0,0,1,0,0)"><svg width="395.52" viewBox="4.130000114440918 -36.040000915527344 174.12998962402344 36.53000259399414" height="82.95218281228094" data-palette-color="#c8c8c8"><path d="M25.76 0L13.16-16.53 8.81-12.01 8.81 0 4.13 0 4.13-35.55 8.81-35.55 8.81-17.97 24.61-35.55 30.27-35.55 16.28-19.85 31.37 0 25.76 0ZM62.79-35.55L62.79 0 58.08 0 40.18-27.39 40.18 0 35.47 0 35.47-35.55 40.18-35.55 58.13-8.03 58.13-35.55 62.79-35.55ZM76.14-35.55L76.14 0 71.45 0 71.45-35.55 76.14-35.55ZM110.95-17.7L110.95-4.66Q109.15-2.08 105.91-0.79 102.68 0.49 98.38 0.49L98.38 0.49Q94.04 0.49 90.67-1.55 87.3-3.59 85.45-7.35 83.61-11.11 83.56-16.06L83.56-16.06 83.56-19.17Q83.56-27.2 87.31-31.62 91.06-36.04 97.84-36.04L97.84-36.04Q103.41-36.04 106.8-33.19 110.2-30.35 110.95-25.12L110.95-25.12 106.27-25.12Q104.95-32.18 97.87-32.18L97.87-32.18Q93.16-32.18 90.73-28.87 88.3-25.56 88.27-19.29L88.27-19.29 88.27-16.38Q88.27-10.4 91.01-6.87 93.74-3.34 98.41-3.34L98.41-3.34Q101.04-3.34 103.02-3.93 105-4.52 106.29-5.91L106.29-5.91 106.29-13.89 98.06-13.89 98.06-17.7 110.95-17.7ZM146.08-35.55L146.08 0 141.37 0 141.37-16.43 123.45-16.43 123.45 0 118.76 0 118.76-35.55 123.45-35.55 123.45-20.26 141.37-20.26 141.37-35.55 146.08-35.55ZM178.26-35.55L178.26-31.69 166.83-31.69 166.83 0 162.17 0 162.17-31.69 150.77-31.69 150.77-35.55 178.26-35.55Z" opacity="1" transform="matrix(1,0,0,1,0,0)" fill="#c8c8c8" class="undefined-text-0" data-fill-palette-color="primary" id="text-0"></path></svg></g></svg></g></svg></g></svg></g><g transform="matrix(1,0,0,1,97.3365448861096,0)"><svg viewBox="0 0 200.84691022778077 200.84691022778077" height="200.84691022778077" width="200.84691022778077"><g><svg></svg></g><g id="icon-0"><svg viewBox="0 0 200.84691022778077 200.84691022778077" height="200.84691022778077" width="200.84691022778077"><g><path d="M0 100.423c0-55.462 44.961-100.423 100.423-100.423 55.462 0 100.423 44.961 100.424 100.423 0 55.462-44.961 100.423-100.424 100.424-55.462 0-100.423-44.961-100.423-100.424zM100.423 193.366c51.331 0 92.943-41.612 92.943-92.943 0-51.331-41.612-92.943-92.943-92.942-51.331 0-92.943 41.612-92.942 92.942 0 51.331 41.612 92.943 92.942 92.943z" data-fill-palette-color="tertiary" fill="#c8c8c8" stroke="transparent"></path></g><g transform="matrix(1,0,0,1,68.4418105901785,43.344965832700396)"><svg viewBox="0 0 63.96328904742375 114.15697856237998" height="114.15697856237998" width="63.96328904742375"><g><svg xmlns="http://www.w3.org/2000/svg" xmlns:xlink="http://www.w3.org/1999/xlink" version="1.1" x="0" y="0" viewBox="26.132999420166016 5.163997650146484 50.336002349853516 89.83599853515625" enable-background="new 0 0 100 100" xml:space="preserve" height="114.15697856237998" width="63.96328904742375" class="icon-s-0" data-fill-palette-color="accent" id="s-0"><path d="M44.86 33.516c2.941 0 5.566-1.306 7.378-3.35l5.641 0.012-3.129-5.967v-0.416c0.001-0.059 0.007-0.117 0.007-0.176 0-0.059-0.006-0.115-0.007-0.174v-3.17c0-5.172-5.052-13.242-9.32-14.887l-0.58-0.224L44.27 5.389c-5.017 1.951-9.315 9.816-9.315 14.886v3.939l-3.104 5.964 5.631-0.012C39.293 32.21 41.919 33.516 44.86 33.516zM42.837 29.985v-9.184c0-1.115 0.907-2.022 2.023-2.022 1.115 0 2.023 0.907 2.023 2.022v9.184c-0.639 0.205-1.317 0.321-2.023 0.321C44.153 30.306 43.475 30.19 42.837 29.985zM38.164 24.999v-4.724c0-3.664 3.214-9.755 6.671-11.616 2.798 1.655 6.704 7.754 6.704 11.616v4.727l1.025 1.954-2.472-0.005v-6.15c0-2.885-2.347-5.232-5.233-5.232s-5.233 2.347-5.233 5.232v6.15l-2.481 0.005L38.164 24.999zM57.421 46.673c0-1.559-0.299-3.046-0.822-4.423l-0.056-0.33c1.176-0.902 1.948-2.307 1.948-3.901 0-2.72-2.213-4.933-4.933-4.933-1.622 0-3.051 0.797-3.951 2.009-1.451-0.6-3.035-0.939-4.702-0.939-1.667 0-3.251 0.339-4.702 0.939-0.9-1.212-2.329-2.009-3.951-2.009-2.72 0-4.933 2.213-4.933 4.933 0 1.557 0.739 2.93 1.869 3.835l-0.145 0.856c-0.402 1.198-0.629 2.475-0.645 3.802L26.133 83.41h9.258V95h8.459V83.41h2.018V95h8.459V83.41h9.258l-6.165-36.317V46.673zM53.558 36.296c0.95 0 1.723 0.773 1.723 1.723s-0.773 1.723-1.723 1.723c-0.951 0-1.724-0.773-1.724-1.723S52.607 36.296 53.558 36.296zM41.17 38.159c1.143-0.507 2.404-0.793 3.734-0.793 1.329 0 2.591 0.286 3.734 0.793 0.075 2.606 2.172 4.704 4.779 4.779 0.507 1.143 0.793 2.405 0.793 3.735v9.364H35.599v-9.364c0-1.33 0.286-2.592 0.793-3.735C38.998 42.863 41.096 40.765 41.17 38.159zM36.252 36.296c0.95 0 1.723 0.773 1.723 1.723s-0.773 1.723-1.723 1.723c-0.95 0-1.723-0.773-1.723-1.723S35.301 36.296 36.252 36.296zM40.641 91.79h-2.04V76.188h2.04V91.79zM51.118 91.79h-2.04V76.188h2.04V91.79zM33.338 72.978l1.998-13.731h19.044l2 13.731H33.338zM76.469 60.964v-7.401h-3.942V20.585c0-1.765-1.609-5.843-3.554-6.593l-0.58-0.224-0.58 0.225c-2.167 0.843-3.55 4.802-3.55 6.592v32.977h-4.34v7.401h6.079v4.502c-1.096 0.761-1.818 2.025-1.818 3.458 0 2.322 1.889 4.211 4.211 4.211s4.211-1.889 4.211-4.211c0-1.432-0.722-2.696-1.817-3.457v-4.503H76.469zM68.395 69.925c-0.552 0-1.001-0.449-1.001-1.001s0.449-1.001 1.001-1.001 1.001 0.449 1.001 1.001S68.947 69.925 68.395 69.925zM67.474 20.585c0-0.67 0.434-1.907 0.881-2.752 0.486 0.892 0.962 2.162 0.962 2.752v32.977h-1.843V20.585zM63.133 56.772h1.131 8.263 0.732v0.981H63.133V56.772z" fill="#c8c8c8" data-fill-palette-color="accent"></path></svg></g></svg></g></svg></g></svg></g><g></g></svg></g><defs></defs></svg><rect width="302.734054839283" height="247.2" fill="none" stroke="none" visibility="hidden"></rect></g></svg></g></svg>